<?xml version="1.0" encoding="UTF-8"?>
<svg xmlns="http://www.w3.org/2000/svg" viewBox="0 0 48 48">
  <path fill="currentColor" d="M18.54 29.71 34.5 17.86c.78-.58 1.9-.35 2.27.55a13.24 13.24 0 0 1-2.82 14.4c-3.9 3.93-9.33 4.79-14.3 2.83l-5.42 2.52c7.78 5.35 17.22 4.03 23.12-1.91a18 18 0 0 0 4.78-16.92l.01.02c-1.96-8.5.49-11.9 5.5-18.85L48 0l-6.6 6.64v-.02l-22.87 23.1M15.24 32.59c-5.58-5.36-4.62-13.66.15-18.45a13.25 13.25 0 0 1 14.33-2.86l5.41-2.51a15.6 15.6 0 0 0-3.66-2.01 17.9 17.9 0 0 0-19.5 3.95 18.24 18.24 0 0 0-3.93 19.61c2.05 5-1.3 8.53-4.68 12.1-1.2 1.26-2.4 2.53-3.36 3.87l15.24-13.7"></path>
</svg>
