<?xml version="1.0" encoding="UTF-8"?>
<svg xmlns="http://www.w3.org/2000/svg" viewBox="0 0 48 48">
  <path fill-rule="evenodd" clip-rule="evenodd" d="M35.9906 4V15.6449H40.5V32.2934H35.9906V44L25.4563 33.6816V43.8076H23.4972V33.7291L13.0106 43.9998V32.2934H8.5V15.6449H13.0094V4.00017L23.4972 14.2719V4.8131H25.4563V14.3184L35.9906 4ZM22.1059 15.6449L14.9686 8.65459V15.6449H22.1059ZM13.0094 17.5946H10.4592V30.3436H13.0097L13.0107 26.5059L13.303 26.2195L22.1061 17.5968H13.0094V17.5946ZM14.9697 27.3227V39.3454L23.4972 30.9936V18.9708L14.9697 27.3227ZM25.4807 18.948V30.9697L34.0314 39.3452V32.2934H34.03L34.0313 27.3226L25.4807 18.948ZM35.9906 30.3436V26.506L35.6981 26.2195L26.895 17.5968H35.9906V17.5946H38.5408V30.3436H35.9906ZM34.0314 15.6449V8.65476L26.895 15.6449H34.0314Z" fill="currentColor"></path>
</svg>
